<?xml version="1.0" encoding="UTF-8" standalone="no"?>
<!-- Created with Inkscape (http://www.inkscape.org/) -->
<svg
   xmlns:dc="http://purl.org/dc/elements/1.1/"
   xmlns:cc="http://creativecommons.org/ns#"
   xmlns:rdf="http://www.w3.org/1999/02/22-rdf-syntax-ns#"
   xmlns:svg="http://www.w3.org/2000/svg"
   xmlns="http://www.w3.org/2000/svg"
   xmlns:sodipodi="http://sodipodi.sourceforge.net/DTD/sodipodi-0.dtd"
   xmlns:inkscape="http://www.inkscape.org/namespaces/inkscape"
   width="650"
   height="500"
   id="svg2"
   sodipodi:version="0.32"
   inkscape:version="0.46"
   version="1.0"
   sodipodi:docname="sparse_comp.svg"
   inkscape:output_extension="org.inkscape.output.svg.inkscape">
  <defs
     id="defs4">
    <marker
       inkscape:stockid="Arrow1Lend"
       orient="auto"
       refY="0"
       refX="0"
       id="Arrow1Lend"
       style="overflow:visible">
      <path
         id="path3165"
         d="M 0,0 L 5,-5 L -12.5,0 L 5,5 L 0,0 z"
         style="fill-rule:evenodd;stroke:#000000;stroke-width:1pt;marker-start:none"
         transform="matrix(-0.8,0,0,-0.8,-10,0)" />
    </marker>
    <marker
       inkscape:stockid="Arrow1Lstart"
       orient="auto"
       refY="0"
       refX="0"
       id="Arrow1Lstart"
       style="overflow:visible">
      <path
         id="path3162"
         d="M 0,0 L 5,-5 L -12.5,0 L 5,5 L 0,0 z"
         style="fill-rule:evenodd;stroke:#000000;stroke-width:1pt;marker-start:none"
         transform="matrix(0.8,0,0,0.8,10,0)" />
    </marker>
    <inkscape:perspective
       sodipodi:type="inkscape:persp3d"
       inkscape:vp_x="0 : 526.18109 : 1"
       inkscape:vp_y="0 : 1000 : 0"
       inkscape:vp_z="744.09448 : 526.18109 : 1"
       inkscape:persp3d-origin="372.04724 : 350.78739 : 1"
       id="perspective10" />
  </defs>
  <sodipodi:namedview
     id="base"
     pagecolor="#ffffff"
     bordercolor="#666666"
     borderopacity="1.0"
     gridtolerance="10000"
     guidetolerance="10"
     objecttolerance="10"
     inkscape:pageopacity="0.0"
     inkscape:pageshadow="2"
     inkscape:zoom="0.7"
     inkscape:cx="387.20021"
     inkscape:cy="34.510796"
     inkscape:document-units="px"
     inkscape:current-layer="layer1"
     showgrid="false"
     inkscape:window-width="1190"
     inkscape:window-height="1895"
     inkscape:window-x="0"
     inkscape:window-y="0" />
  <metadata
     id="metadata7">
    <rdf:RDF>
      <cc:Work
         rdf:about="">
        <dc:format>image/svg+xml</dc:format>
        <dc:type
           rdf:resource="http://purl.org/dc/dcmitype/StillImage" />
      </cc:Work>
    </rdf:RDF>
  </metadata>
  <g
     inkscape:label="Layer 1"
     inkscape:groupmode="layer"
     id="layer1">
    <path
       sodipodi:type="arc"
       style="opacity:0.49599998;fill:#fb7824;fill-opacity:0.8;stroke:#14993c;stroke-width:0.60000002;stroke-linejoin:miter;stroke-miterlimit:4;stroke-dasharray:none;stroke-dashoffset:0;stroke-opacity:0.8"
       id="path2385"
       sodipodi:cx="27.5"
       sodipodi:cy="49.326466"
       sodipodi:rx="7.5"
       sodipodi:ry="7.6785712"
       d="M 35,49.326466 A 7.5,7.6785712 0 1 1 20,49.326466 A 7.5,7.6785712 0 1 1 35,49.326466 z"
       transform="matrix(3.498893,0,0,3.3206913,-39.969554,-112.8936)" />
    <path
       style="fill:none;fill-rule:evenodd;stroke:#000000;stroke-width:1.94456196px;stroke-linecap:butt;stroke-linejoin:miter;marker-start:url(#Arrow1Lstart);marker-end:url(#Arrow1Lend);stroke-opacity:1"
       d="M 110.06895,42.022169 L 213.85962,51.273613"
       id="path2387" />
    <path
       sodipodi:type="arc"
       style="opacity:0.49599998;fill:#fb7824;fill-opacity:0.8;stroke:#14993c;stroke-width:0.60000002;stroke-linejoin:miter;stroke-miterlimit:4;stroke-dasharray:none;stroke-dashoffset:0;stroke-opacity:0.8"
       id="path4460"
       sodipodi:cx="27.5"
       sodipodi:cy="49.326466"
       sodipodi:rx="7.5"
       sodipodi:ry="7.6785712"
       d="M 35,49.326466 A 7.5,7.6785712 0 1 1 20,49.326466 A 7.5,7.6785712 0 1 1 35,49.326466 z"
       transform="matrix(3.498893,0,0,3.3206913,39.49473,29.992793)" />
    <path
       style="fill:none;fill-rule:evenodd;stroke:#000000;stroke-width:1.69341826px;stroke-linecap:butt;stroke-linejoin:miter;marker-start:url(#Arrow1Lstart);marker-end:url(#Arrow1Lend);stroke-opacity:1"
       d="M 75.704694,89.584376 L 115.031,157.9971"
       id="path4462" />
    <path
       sodipodi:type="arc"
       style="opacity:0.49599998;fill:#fb7824;fill-opacity:0.8;stroke:#14993c;stroke-width:0.60000002;stroke-linejoin:miter;stroke-miterlimit:4;stroke-dasharray:none;stroke-dashoffset:0;stroke-opacity:0.8"
       id="path4464"
       sodipodi:cx="27.5"
       sodipodi:cy="49.326466"
       sodipodi:rx="7.5"
       sodipodi:ry="7.6785712"
       d="M 35,49.326466 A 7.5,7.6785712 0 1 1 20,49.326466 A 7.5,7.6785712 0 1 1 35,49.326466 z"
       transform="matrix(3.498893,0,0,3.3206913,450.04114,-81.43578)" />
    <path
       style="fill:none;fill-rule:evenodd;stroke:#000000;stroke-width:1.39733922px;stroke-linecap:butt;stroke-linejoin:miter;marker-start:url(#Arrow1Lstart);marker-end:url(#Arrow1Lend);stroke-opacity:1"
       d="M 348.22501,246.27066 L 348.22501,194.16799"
       id="path4466" />
    <path
       sodipodi:type="arc"
       style="opacity:0.49599998;fill:#fb7824;fill-opacity:0.8;stroke:#14993c;stroke-width:0.60000002;stroke-linejoin:miter;stroke-miterlimit:4;stroke-dasharray:none;stroke-dashoffset:0;stroke-opacity:0.8"
       id="path4468"
       sodipodi:cx="27.5"
       sodipodi:cy="49.326466"
       sodipodi:rx="7.5"
       sodipodi:ry="7.6785712"
       d="M 35,49.326466 A 7.5,7.6785712 0 1 1 20,49.326466 A 7.5,7.6785712 0 1 1 35,49.326466 z"
       transform="matrix(3.498893,0,0,3.3206913,324.32686,285.70707)" />
    <path
       sodipodi:type="arc"
       style="opacity:0.49599998;fill:#fb7824;fill-opacity:0.8;stroke:#14993c;stroke-width:0.60000002;stroke-linejoin:miter;stroke-miterlimit:4;stroke-dasharray:none;stroke-dashoffset:0;stroke-opacity:0.8"
       id="path2457"
       sodipodi:cx="27.5"
       sodipodi:cy="49.326466"
       sodipodi:rx="7.5"
       sodipodi:ry="7.6785712"
       d="M 35,49.326466 A 7.5,7.6785712 0 1 1 20,49.326466 A 7.5,7.6785712 0 1 1 35,49.326466 z"
       transform="matrix(3.498893,0,0,3.3206913,-27.648133,249.05918)" />
    <path
       sodipodi:type="arc"
       style="opacity:0.49599998;fill:#fb7824;fill-opacity:0.8;stroke:#14993c;stroke-width:0.60000002;stroke-linejoin:miter;stroke-miterlimit:4;stroke-dasharray:none;stroke-dashoffset:0;stroke-opacity:0.8"
       id="path2459"
       sodipodi:cx="27.5"
       sodipodi:cy="49.326466"
       sodipodi:rx="7.5"
       sodipodi:ry="7.6785712"
       d="M 35,49.326466 A 7.5,7.6785712 0 1 1 20,49.326466 A 7.5,7.6785712 0 1 1 35,49.326466 z"
       transform="matrix(3.498893,0,0,3.3206913,415.20901,164.77346)" />
    <path
       sodipodi:type="arc"
       style="opacity:0.49599998;fill:#fb7824;fill-opacity:0.8;stroke:#14993c;stroke-width:0.60000002;stroke-linejoin:miter;stroke-miterlimit:4;stroke-dasharray:none;stroke-dashoffset:0;stroke-opacity:0.8"
       id="path2461"
       sodipodi:cx="27.5"
       sodipodi:cy="49.326466"
       sodipodi:rx="7.5"
       sodipodi:ry="7.6785712"
       d="M 35,49.326466 A 7.5,7.6785712 0 1 1 20,49.326466 A 7.5,7.6785712 0 1 1 35,49.326466 z"
       transform="matrix(3.498893,0,0,3.3206913,163.78045,271.91632)" />
    <path
       sodipodi:type="arc"
       style="opacity:0.49599998;fill:#fb7824;fill-opacity:0.8;stroke:#14993c;stroke-width:0.60000002;stroke-linejoin:miter;stroke-miterlimit:4;stroke-dasharray:none;stroke-dashoffset:0;stroke-opacity:0.8"
       id="path2463"
       sodipodi:cx="27.5"
       sodipodi:cy="49.326466"
       sodipodi:rx="7.5"
       sodipodi:ry="7.6785712"
       d="M 35,49.326466 A 7.5,7.6785712 0 1 1 20,49.326466 A 7.5,7.6785712 0 1 1 35,49.326466 z"
       transform="matrix(3.498893,0,0,3.3206913,126.6376,113.34489)" />
    <path
       sodipodi:type="arc"
       style="opacity:0.49599998;fill:#fb7824;fill-opacity:0.8;stroke:#14993c;stroke-width:0.60000002;stroke-linejoin:miter;stroke-miterlimit:4;stroke-dasharray:none;stroke-dashoffset:0;stroke-opacity:0.8"
       id="path2465"
       sodipodi:cx="27.5"
       sodipodi:cy="49.326466"
       sodipodi:rx="7.5"
       sodipodi:ry="7.6785712"
       d="M 35,49.326466 A 7.5,7.6785712 0 1 1 20,49.326466 A 7.5,7.6785712 0 1 1 35,49.326466 z"
       transform="matrix(3.498893,0,0,3.3206913,250.92331,-5.2265369)" />
    <path
       sodipodi:type="arc"
       style="opacity:0.49599998;fill:#fb7824;fill-opacity:0.8;stroke:#14993c;stroke-width:0.60000002;stroke-linejoin:miter;stroke-miterlimit:4;stroke-dasharray:none;stroke-dashoffset:0;stroke-opacity:0.8"
       id="path2467"
       sodipodi:cx="27.5"
       sodipodi:cy="49.326466"
       sodipodi:rx="7.5"
       sodipodi:ry="7.6785712"
       d="M 35,49.326466 A 7.5,7.6785712 0 1 1 20,49.326466 A 7.5,7.6785712 0 1 1 35,49.326466 z"
       transform="matrix(3.498893,0,0,3.3206913,252.35189,119.05918)" />
    <path
       sodipodi:type="arc"
       style="opacity:0.49599998;fill:#fb7824;fill-opacity:0.8;stroke:#14993c;stroke-width:0.60000002;stroke-linejoin:miter;stroke-miterlimit:4;stroke-dasharray:none;stroke-dashoffset:0;stroke-opacity:0.8"
       id="path2469"
       sodipodi:cx="27.5"
       sodipodi:cy="49.326466"
       sodipodi:rx="7.5"
       sodipodi:ry="7.6785712"
       d="M 35,49.326466 A 7.5,7.6785712 0 1 1 20,49.326466 A 7.5,7.6785712 0 1 1 35,49.326466 z"
       transform="matrix(3.498893,0,0,3.3206913,163.78044,-106.65511)" />
    <path
       sodipodi:type="arc"
       style="opacity:0.49599998;fill:#fb7824;fill-opacity:0.8;stroke:#14993c;stroke-width:0.60000002;stroke-linejoin:miter;stroke-miterlimit:4;stroke-dasharray:none;stroke-dashoffset:0;stroke-opacity:0.8"
       id="path2471"
       sodipodi:cx="27.5"
       sodipodi:cy="49.326466"
       sodipodi:rx="7.5"
       sodipodi:ry="7.6785712"
       d="M 35,49.326466 A 7.5,7.6785712 0 1 1 20,49.326466 A 7.5,7.6785712 0 1 1 35,49.326466 z"
       transform="matrix(3.498893,0,0,3.3206913,438.06615,43.344894)" />
    <path
       style="fill:none;fill-rule:evenodd;stroke:#000000;stroke-width:1.37922835px;stroke-linecap:butt;stroke-linejoin:miter;marker-start:url(#Arrow1Lstart);marker-end:url(#Arrow1Lend);stroke-opacity:1"
       d="M 260.3682,280 L 311.0604,280"
       id="path2473" />
    <path
       style="fill:none;fill-rule:evenodd;stroke:#000000;stroke-width:1.88011765px;stroke-linecap:butt;stroke-linejoin:miter;marker-start:url(#Arrow1Lstart);marker-end:url(#Arrow1Lend);stroke-opacity:1"
       d="M 118.07244,418.21645 L 214.7847,427.49783"
       id="path2475" />
    <path
       style="fill:none;fill-rule:evenodd;stroke:#000000;stroke-width:1.09055877px;stroke-linecap:butt;stroke-linejoin:miter;marker-start:url(#Arrow1Lstart);marker-end:url(#Arrow1Lend);stroke-opacity:1"
       d="M 163.77615,213.6357 L 196.22384,259.22144"
       id="path2477" />
    <path
       style="fill:none;fill-rule:evenodd;stroke:#000000;stroke-width:1.39733922px;stroke-linecap:butt;stroke-linejoin:miter;marker-start:url(#Arrow1Lstart);marker-end:url(#Arrow1Lend);stroke-opacity:1"
       d="M 545.71429,171.76562 L 545.71429,119.66295"
       id="path2479" />
    <path
       style="fill:none;fill-rule:evenodd;stroke:#000000;stroke-width:1.39733922px;stroke-linecap:butt;stroke-linejoin:miter;marker-start:url(#Arrow1Lstart);marker-end:url(#Arrow1Lend);stroke-opacity:1"
       d="M 524.28572,293.19419 L 524.28572,241.09153"
       id="path2481" />
    <path
       style="fill:none;fill-rule:evenodd;stroke:#000000;stroke-width:1.55724323px;stroke-linecap:butt;stroke-linejoin:miter;marker-start:url(#Arrow1Lstart);marker-end:url(#Arrow1Lend);stroke-opacity:1"
       d="M 498.16655,357.45333 L 451.83347,422.54666"
       id="path2485" />
    <path
       style="fill:none;fill-rule:evenodd;stroke:#000000;stroke-width:1.55724323px;stroke-linecap:butt;stroke-linejoin:miter;marker-start:url(#Arrow1Lstart);marker-end:url(#Arrow1Lend);stroke-opacity:1"
       d="M 306.26166,184.07771 L 248.02406,238.77942"
       id="path2489" />
    <path
       style="fill:none;fill-rule:evenodd;stroke:#000000;stroke-width:1.09055877px;stroke-linecap:butt;stroke-linejoin:miter;marker-start:url(#Arrow1Lstart);marker-end:url(#Arrow1Lend);stroke-opacity:1"
       d="M 293.77616,88.6357 L 326.22385,134.22144"
       id="path2511" />
  </g>
</svg>
